# xmcd
#
# Track frame offsets:
# 151
# 13524
# 37022
# 50527
# 70322
# 84105
# 101117
# 112783
# 127736
# 143880
# 157347
# 173923
# 192797
# 206978
# 216429
# 233021
# 258250
# 286777
# 298174
# 313065
#
# Disc length: 4378 seconds
#
#
# Revision: 0
# Processed by: cddbd v1.5.2PL0 Copyright (c) Steve Scherf et al.
# Submitted via: FreeRIP 2.53 
#
DISCID=27111814
DTITLE=Dave Taylor - This is Boogie Woogie!
DYEAR=2006
DGENRE=Boogie Woogie
TTITLE0=Minor Details
TTITLE1=Back to Basics
TTITLE2=Boogie f'Release
TTITLE3=Shufflin'
TTITLE4=Skyjive
TTITLE5=Big Beam Boogie
TTITLE6=Boogie in the City
TTITLE7=Swanee River Boogie
TTITLE8=Cadillac Boogie
TTITLE9=Driving Home
TTITLE10=Scrapin' the Barrel
TTITLE11=Nola Boogie
TTITLE12=Honky Tonk Express
TTITLE13=Grizzly Bear Boogie
TTITLE14=Chattanooga Choo Choo
TTITLE15=Rhapsody in Boogie
TTITLE16=Spooky Boogie
TTITLE17=Burn it Boogie
TTITLE18=Poundin' the Tracks
TTITLE19=Goodnight, Goodnight
EXTD=Midnight MCD602
EXTT0=
EXTT1=
EXTT2=
EXTT3=
EXTT4=
EXTT5=
EXTT6=
EXTT7=
EXTT8=
EXTT9=
EXTT10=
EXTT11=
EXTT12=
EXTT13=
EXTT14=
EXTT15=
EXTT16=
EXTT17=
EXTT18=
EXTT19=
PLAYORDER=
